<svg xmlns="http://www.w3.org/2000/svg"        width="20"
      viewBox="0 0 23 30" fill="none">
    <path d="M2.98967 10.9751L8.5148 16.5002L2.98967 22.0253L2.28256 22.7324L2.98967 23.4395L6.5252 26.9751L7.23231 27.6822L7.93942 26.9751L17.7072 17.2073L18.4143 16.5002L17.7072 15.7931L7.93942 6.02532L7.23231 5.31821L6.5252 6.02532L2.98967 9.56085L2.28256 10.268L2.98967 10.9751Z" fill="#332B29" stroke="#332B29" stroke-width="2"></path>
    <path d="M5.98967 7.97506L11.5148 13.5002L5.98967 19.0253L5.28256 19.7324L5.98967 20.4395L9.5252 23.9751L10.2323 24.6822L10.9394 23.9751L20.7072 14.2073L21.4143 13.5002L20.7072 12.7931L10.9394 3.02532L10.2323 2.31821L9.5252 3.02532L5.98967 6.56085L5.28256 7.26796L5.98967 7.97506Z" fill="white" stroke="#332B29" stroke-width="2"></path>
</svg>