<svg viewBox="0 0 50 48" xmlns="http://www.w3.org/2000/svg">
    <path d="M39.0218 4.32944L45.3502 10.4235L36.6101 18.8398L35.7169 19.7H36.9569H49.3462V28.3H36.9569H35.7169L36.6101 29.1602L45.3502 37.5766L39.0218 43.6706L30.2545 35.228L29.4077 34.4125V35.5882V47.5H20.4385V35.5882V34.4125L19.5916 35.228L10.8245 43.6706L4.49598 37.5763L13.236 29.1602L14.1292 28.3H12.8891H0.5V19.7H12.8892H14.1292L13.236 18.8398L4.49598 10.4235L10.8245 4.32946L19.5916 12.7719L20.4385 13.5874V12.4118V0.5H29.4077V12.4118V13.5874L30.2545 12.7719L39.0218 4.32944Z" fill="#E2C6FF" stroke="black"></path>
</svg>